<svg id="Capa_1" xmlns="http://www.w3.org/2000/svg" viewBox="0 0 37 37"><style>.st0{fill:#dc4e41}.st1{fill:#fff}</style><circle id="XMLID_30_" class="st0" cx="18.5" cy="18.5" r="18.5"/><path class="st0" d="M6.4 19.3c-.1 3.2 2.1 6.2 5.1 7.2 2.8 1 6.3.2 8.2-2.2 1.4-1.7 1.7-4 1.5-6.1h-7.3v2.6c1.5 0 2.9 0 4.4.1-.4 1.3-1.2 2.4-2.5 2.9-2.5 1.1-5.6-.3-6.4-2.9-.9-2.5.6-5.4 3.1-6.2 1.6-.5 3.2.1 4.5.9.7-.6 1.3-1.3 1.9-2-1.5-1.3-3.5-2.1-5.5-1.9-3.7.1-7.1 3.7-7 7.6zM26.1 16v2.2h-2.2v2.2h2.2v2.2h2.2v-2.2h2.2v-2.2h-2.2V16h-2.2z"/><path class="st1" d="M6.4 19.3c-.1-3.9 3.3-7.6 7.2-7.6 2-.2 4 .6 5.5 1.9-.6.7-1.3 1.4-1.9 2-1.3-.8-2.9-1.4-4.5-.9-2.5.7-4 3.7-3.1 6.2.8 2.6 3.9 4 6.4 2.9 1.3-.5 2.1-1.6 2.5-2.9-1.5 0-2.9 0-4.4-.1v-2.6h7.3c.1 2.1-.2 4.4-1.5 6.1-1.9 2.4-5.4 3.1-8.2 2.2-3.1-1-5.3-4-5.3-7.2zM26.1 16h2.2v2.2h2.2v2.2h-2.2v2.2h-2.2v-2.2h-2.2v-2.2h2.2V16z"/></svg>