<?xml version="1.0" standalone="no"?>
<!DOCTYPE svg PUBLIC "-//W3C//DTD SVG 20010904//EN"
 "http://www.w3.org/TR/2001/REC-SVG-20010904/DTD/svg10.dtd">
<svg version="1.0" xmlns="http://www.w3.org/2000/svg"
 width="2350.000000pt" height="360.000000pt" viewBox="0 0 2350.000000 360.000000"
 preserveAspectRatio="xMidYMid meet">
<metadata>
Created by potrace 1.15, written by Peter Selinger 2001-2017
</metadata>
<g transform="translate(0.000000,360.000000) scale(0.100000,-0.100000)"
fill="#000000" stroke="none">
<path d="M1261 3243 c-8 -16 -112 -241 -597 -1298 l-133 -290 452 -3 c248 -1
457 0 462 2 6 2 66 125 134 274 l123 270 220 97 c121 54 223 94 227 89 5 -5
96 -172 202 -371 l194 -363 472 0 c260 0 473 2 473 5 0 2 -147 226 -326 497
-180 271 -329 500 -331 508 -3 11 102 62 409 199 227 101 520 232 650 290
l237 106 -456 3 -455 2 -659 -331 c-363 -183 -661 -330 -664 -327 -4 3 220
499 281 622 8 16 14 31 14 33 0 1 -207 3 -460 3 -427 0 -460 -1 -469 -17z"/>
<path d="M6710 3251 c0 -8 -248 -551 -597 -1306 -68 -148 -127 -276 -130 -282
-4 -10 85 -13 428 -13 l434 0 365 796 c201 437 367 800 368 805 2 5 -167 9
-432 9 -243 0 -436 -4 -436 -9z"/>
<path d="M16588 3092 c-37 -81 -70 -155 -73 -165 -7 -16 16 -17 431 -15 l438
3 73 155 c39 85 72 158 72 163 1 4 -196 7 -436 7 l-438 0 -67 -148z"/>
<path d="M10635 2979 c-327 -264 -589 -474 -1265 -1018 -228 -184 -417 -336
-419 -338 -2 -1 187 -3 422 -3 l425 0 178 165 178 165 592 0 592 0 5 -22 c3
-13 16 -87 28 -165 l23 -143 473 0 c260 0 473 1 473 3 0 1 -14 47 -30 102 -16
55 -30 104 -30 109 0 5 19 -10 43 -33 79 -79 227 -136 462 -178 145 -26 762
-26 945 0 418 59 659 156 843 338 48 47 87 91 87 96 0 7 -140 13 -396 18
l-395 7 -16 -23 c-30 -45 -105 -109 -157 -134 -83 -40 -160 -55 -285 -55 -311
0 -377 108 -240 389 58 117 145 204 259 259 96 45 154 60 281 69 92 6 191 -7
241 -33 43 -22 61 -68 55 -132 l-6 -54 400 4 c339 3 402 6 410 18 6 8 8 48 6
88 l-4 72 99 0 c54 0 98 -4 98 -8 0 -5 -56 -129 -124 -278 -135 -294 -156
-351 -156 -430 0 -45 5 -59 30 -87 34 -40 118 -80 222 -106 133 -34 282 -43
608 -37 168 3 505 9 750 12 l446 6 159 346 c243 529 245 535 249 531 3 -2 52
-177 111 -389 58 -212 113 -409 121 -438 l15 -52 344 0 343 0 381 325 c210
179 383 325 386 325 2 0 -9 -28 -25 -63 -58 -122 -61 -219 -12 -310 71 -132
238 -217 527 -268 151 -27 641 -38 843 -20 462 43 770 146 1003 337 38 31 68
58 66 60 -2 2 -173 9 -380 15 l-375 10 -43 -46 c-47 -51 -148 -105 -249 -132
-51 -14 -103 -18 -240 -18 -159 1 -180 3 -233 24 -103 41 -120 110 -61 241
l27 60 814 0 814 0 18 43 c72 168 65 314 -20 411 -120 137 -487 226 -931 226
-406 0 -782 -67 -1080 -194 -21 -9 -38 -15 -38 -13 0 3 79 72 181 156 l24 20
-361 1 -361 0 -373 -346 c-234 -219 -375 -343 -379 -335 -4 6 -29 162 -56 346
l-49 335 -978 0 c-607 0 -978 4 -978 9 0 6 37 89 81 186 45 97 79 178 76 181
-3 3 -194 2 -424 -2 l-418 -7 -84 -183 -84 -184 -173 0 -172 0 -33 -70 c-17
-38 -33 -70 -35 -70 -1 0 -35 18 -76 39 -151 81 -355 118 -698 128 -587 16
-1072 -85 -1372 -286 -73 -50 -191 -161 -229 -216 -42 -63 -91 -170 -108 -238
l-17 -71 -171 600 -171 599 -469 2 -468 2 -310 -250z m598 -428 c31 -173 55
-316 53 -318 -1 -2 -187 -2 -412 -1 l-408 3 349 323 c192 177 352 319 355 315
4 -5 32 -149 63 -322z m9290 54 c141 -30 185 -94 141 -205 l-16 -40 -405 0
c-320 0 -403 3 -397 13 96 166 257 244 509 246 55 0 131 -6 168 -14z m-4184
-62 c0 -5 -69 -156 -152 -338 l-152 -330 -115 -3 c-182 -4 -300 22 -315 69 -8
23 30 116 155 387 l102 222 239 0 c132 0 239 -3 238 -7z"/>
<path d="M8427 3213 l-319 -3 -47 -103 c-26 -56 -65 -139 -86 -184 l-38 -83
-172 0 -172 0 -56 -122 c-32 -68 -57 -126 -57 -130 0 -4 76 -9 168 -10 l168
-3 -118 -255 c-202 -438 -212 -510 -84 -585 60 -35 146 -63 256 -83 80 -14
157 -17 480 -16 212 1 411 5 443 10 l58 9 54 118 c30 66 55 120 55 122 0 2
-100 5 -222 8 -231 4 -283 12 -319 48 -16 16 -19 27 -13 52 3 18 62 154 129
302 l123 270 289 3 289 2 55 122 c30 67 56 125 57 130 2 4 -123 8 -277 8 -190
0 -281 3 -281 11 0 5 36 88 80 184 44 96 80 176 80 179 0 4 -46 5 -102 4 -57
-2 -246 -4 -421 -5z"/>
<path d="M4870 2859 c-502 -36 -923 -184 -1141 -402 -65 -65 -123 -143 -156
-212 -112 -238 -28 -410 255 -520 190 -73 435 -100 841 -92 458 9 756 64 1017
188 115 54 319 198 303 213 -2 2 -170 9 -374 14 l-370 11 -50 -49 c-56 -55
-139 -100 -235 -126 -51 -15 -103 -18 -245 -19 -165 0 -185 2 -237 23 -80 32
-102 62 -95 130 3 29 19 82 36 118 l30 64 814 0 814 0 26 78 c57 165 43 283
-42 371 -161 165 -638 249 -1191 210z m411 -238 c31 -12 64 -30 73 -40 23 -26
31 -90 16 -135 -23 -69 0 -66 -429 -66 -213 0 -391 3 -394 6 -17 18 68 123
136 169 103 70 216 95 407 91 111 -2 145 -7 191 -25z"/>
<path d="M430 800 c-69 -150 -126 -277 -128 -281 -5 -13 665 -11 789 1 229 23
379 94 379 180 0 38 -29 60 -115 85 l-74 21 72 22 c84 25 129 51 153 87 23 35
5 78 -44 101 -87 41 -135 46 -527 51 l-381 5 -124 -272z m857 178 c37 -21 44
-35 30 -65 -15 -34 -81 -61 -177 -73 -99 -12 -503 -14 -498 -2 2 5 19 43 38
86 l34 77 271 -3 c233 -3 274 -5 302 -20z m-92 -228 c50 -15 75 -37 75 -65 0
-58 -99 -95 -285 -106 -143 -8 -465 -12 -465 -5 0 2 20 47 45 101 l45 97 273
-5 c168 -3 287 -10 312 -17z"/>
<path d="M1880 906 c-157 -28 -254 -70 -314 -136 -68 -75 -75 -135 -22 -184
44 -42 116 -64 250 -78 181 -19 379 9 514 72 l64 30 36 -29 c147 -115 651
-102 851 22 31 18 32 21 15 28 -10 4 -49 8 -85 8 -54 1 -77 -4 -125 -28 -82
-41 -164 -54 -291 -49 -157 7 -223 40 -223 112 l0 26 394 0 394 0 12 34 c23
72 -25 126 -145 163 -50 15 -93 18 -255 17 -177 0 -204 -3 -291 -26 -53 -14
-119 -38 -147 -52 l-50 -26 -34 34 c-54 54 -116 68 -308 72 -107 2 -191 -2
-240 -10z m338 -61 c23 -10 47 -26 53 -36 8 -16 22 -19 85 -19 l75 0 -26 -34
c-14 -19 -31 -50 -36 -70 l-10 -36 -58 6 c-55 6 -60 5 -104 -29 -59 -45 -153
-67 -279 -67 -110 1 -182 22 -211 62 -18 25 -19 31 -8 70 25 83 124 146 261
168 79 13 208 5 258 -15z m874 5 c48 -14 77 -39 80 -70 l3 -25 -295 -2 -295
-3 31 29 c37 34 125 69 204 81 66 11 221 5 272 -10z"/>
<path d="M7500 905 c-98 -16 -156 -35 -220 -72 -44 -26 -44 -27 -20 -34 14 -4
50 -7 81 -8 45 -1 69 5 119 32 l63 32 182 0 c138 0 188 -3 208 -14 34 -18 36
-57 5 -71 -13 -5 -138 -16 -278 -25 -140 -8 -289 -22 -329 -31 -179 -38 -246
-119 -141 -172 99 -49 340 -52 558 -9 l111 23 6 -23 c5 -22 10 -23 102 -23 75
0 94 3 85 12 -21 21 -13 59 39 174 60 132 61 161 9 186 -19 9 -64 22 -100 27
-90 15 -377 12 -480 -4z m386 -223 c-43 -83 -165 -122 -380 -122 -126 0 -180
10 -190 36 -17 43 47 72 189 85 155 14 306 26 353 28 l43 1 -15 -28z"/>
<path d="M12945 913 c-135 -17 -255 -55 -329 -104 -81 -54 -119 -152 -80 -207
81 -115 535 -134 806 -32 90 33 188 135 188 195 0 62 -74 113 -203 139 -71 15
-296 20 -382 9z m301 -68 c68 -20 99 -53 91 -100 -12 -71 -75 -127 -188 -162
-40 -13 -90 -18 -194 -18 -123 0 -146 3 -187 22 -55 25 -72 52 -63 100 12 66
91 126 210 158 69 19 268 19 331 0z"/>
<path d="M14455 914 c-55 -8 -170 -33 -189 -40 -16 -6 -18 -4 -14 14 l6 22
-302 0 -301 0 -37 -82 c-20 -46 -62 -136 -92 -201 l-56 -118 92 3 91 3 48 105
c26 58 62 135 80 173 l31 67 202 0 201 0 -60 -33 c-103 -57 -154 -162 -109
-225 81 -116 535 -134 807 -32 73 28 150 97 173 156 16 42 16 48 1 79 -18 38
-69 69 -152 92 -49 15 -355 26 -420 17z m301 -69 c69 -20 99 -53 91 -101 -9
-54 -49 -99 -120 -133 -80 -39 -175 -55 -301 -49 -157 7 -226 47 -212 122 13
70 90 128 209 161 71 19 269 19 333 0z"/>
<path d="M15845 914 c-215 -32 -350 -92 -400 -178 -88 -150 47 -230 385 -229
269 0 433 44 532 143 113 113 81 196 -97 247 -49 15 -355 26 -420 17z m300
-68 c94 -29 119 -86 70 -158 -53 -77 -157 -117 -331 -125 -192 -9 -294 33
-281 114 12 74 89 136 207 167 74 20 272 21 335 2z"/>
<path d="M20575 905 c-111 -17 -151 -30 -215 -67 -52 -30 -54 -32 -30 -39 14
-4 50 -7 81 -8 45 -1 69 5 119 32 63 32 65 32 224 35 192 4 249 -8 254 -50 2
-18 -3 -30 -15 -36 -10 -6 -138 -17 -284 -26 -281 -17 -382 -34 -462 -78 -43
-24 -65 -62 -54 -92 10 -26 88 -55 179 -67 127 -17 378 3 505 40 28 8 32 7 37
-15 6 -23 9 -24 103 -24 75 0 94 3 85 12 -21 21 -13 56 39 173 59 134 61 162
9 187 -19 9 -64 22 -100 27 -88 14 -376 12 -475 -4z m381 -223 c-28 -54 -75
-82 -183 -106 -83 -18 -303 -22 -351 -5 -63 22 -44 69 40 94 26 7 132 19 235
26 104 6 190 13 192 15 2 2 22 4 43 4 l39 0 -15 -28z"/>
<path d="M4018 848 c-20 -39 -63 -94 -113 -143 -94 -95 -180 -145 -247 -145
-49 0 -43 7 -94 -107 l-24 -53 74 0 74 0 22 55 22 55 414 0 c228 0 414 -2 414
-5 0 -3 -11 -28 -25 -55 l-25 -50 73 0 73 0 27 55 27 55 77 0 c93 0 190 19
228 44 19 13 48 61 96 162 l69 144 230 0 c133 0 230 -4 230 -9 0 -5 -34 -82
-75 -172 -41 -89 -75 -164 -75 -165 0 -2 40 -4 88 -4 l88 0 46 103 c26 56 67
146 92 200 l45 97 -413 0 -413 0 -67 -147 c-37 -82 -75 -156 -83 -165 -18 -20
-44 -25 -160 -32 -63 -3 -83 -1 -83 9 0 7 19 52 41 101 23 49 56 122 75 162
l33 72 -364 0 -364 0 -33 -62z m552 3 c0 -11 -119 -273 -129 -284 -4 -4 -131
-6 -282 -5 l-274 3 57 38 c65 44 160 142 203 210 l30 47 198 0 c108 0 197 -4
197 -9z"/>
<path d="M6065 894 c-83 -16 -150 -49 -178 -86 -17 -23 -19 -31 -9 -53 15 -33
80 -62 158 -71 l59 -7 -70 -22 c-38 -12 -130 -48 -202 -81 l-133 -59 103 -3
102 -3 125 57 c195 88 220 95 358 101 l123 6 -10 -26 c-6 -14 -21 -48 -36 -76
-14 -28 -25 -53 -25 -56 0 -3 40 -5 88 -5 l89 0 46 103 c25 56 66 146 91 200
l45 97 -327 -1 c-235 -1 -347 -5 -397 -15z m515 -41 c0 -5 -12 -37 -27 -72
l-28 -64 -195 5 c-219 6 -274 18 -268 60 4 29 56 58 121 68 69 10 397 12 397
3z"/>
<path d="M8248 828 c-20 -46 -62 -136 -92 -200 l-55 -118 89 0 90 0 45 96 45
96 47 -7 c59 -8 77 -20 179 -112 l81 -73 94 0 94 1 -80 75 c-85 79 -116 100
-180 120 -41 12 -40 14 30 33 22 5 67 27 100 47 126 78 109 74 327 74 109 0
198 -2 198 -4 0 -6 -89 -205 -114 -255 -48 -95 -50 -92 50 -89 l88 3 80 173
79 172 168 0 c156 0 169 1 179 19 5 11 10 22 10 25 0 3 -220 6 -488 6 -391 0
-498 -3 -536 -14 -25 -8 -88 -40 -138 -71 -51 -32 -110 -63 -131 -71 -37 -13
-117 -20 -117 -10 0 3 16 39 35 82 19 42 35 78 35 80 0 2 -39 4 -88 4 l-87 0
-37 -82z"/>
<path d="M9724 712 l-90 -197 94 -3 94 -3 311 151 c171 82 312 148 314 146 3
-2 -25 -68 -61 -147 -36 -78 -66 -144 -66 -146 0 -1 40 -3 88 -3 l88 0 90 198
90 197 -96 3 -96 3 -235 -114 c-349 -168 -384 -185 -387 -182 -1 1 27 66 63
145 36 78 65 144 65 146 0 2 -39 4 -87 4 l-88 0 -91 -198z"/>
<path d="M10710 724 c-47 -102 -86 -192 -88 -200 -3 -12 42 -14 290 -14 391 1
510 17 583 81 56 50 42 95 -37 114 -16 4 -28 10 -28 14 0 3 23 15 52 26 60 23
94 62 83 95 -4 13 -26 31 -53 44 -45 20 -64 21 -382 24 l-335 3 -85 -187z
m643 118 c48 -20 28 -62 -41 -83 -39 -12 -412 -26 -412 -15 0 3 12 31 28 62
l27 56 185 -5 c102 -2 197 -9 213 -15z m-35 -176 c41 -21 39 -43 -6 -69 -25
-15 -64 -21 -165 -28 -181 -11 -327 -11 -327 1 0 5 12 35 28 66 l27 56 205 -4
c171 -3 210 -7 238 -22z"/>
<path d="M11716 883 c-22 -45 -166 -362 -166 -368 0 -3 39 -5 86 -5 l85 0 42
90 42 90 247 0 247 0 -40 -84 c-21 -46 -39 -87 -39 -90 0 -4 39 -5 87 -4 l87
3 88 190 c48 105 88 193 88 198 0 4 -39 7 -86 7 l-86 0 -36 -80 -36 -80 -248
0 -248 0 35 70 c19 38 35 74 35 80 0 6 -34 10 -85 10 -82 0 -85 -1 -99 -27z"/>
<path d="M16411 888 l-8 -23 163 -3 c90 -1 164 -5 164 -8 0 -3 -34 -79 -75
-169 -41 -89 -75 -165 -75 -169 0 -4 39 -5 87 -4 l87 3 80 173 80 172 168 0
c155 0 168 1 178 19 5 11 10 22 10 25 0 3 -191 6 -425 6 l-426 0 -8 -22z"/>
<path d="M17318 832 c-83 -142 -250 -272 -350 -272 -49 0 -43 7 -94 -107 l-24
-53 74 0 74 0 23 55 23 55 413 0 c227 0 413 -2 413 -5 0 -3 -11 -28 -25 -55
l-25 -50 73 0 74 0 36 78 35 77 -49 3 c-32 2 -49 8 -49 16 0 7 19 53 41 102
23 49 56 122 75 162 l33 72 -363 0 -363 0 -45 -78z m562 19 c0 -11 -119 -273
-129 -284 -4 -4 -131 -6 -282 -5 l-274 3 57 38 c65 44 160 142 203 210 l30 47
198 0 c108 0 197 -4 197 -9z"/>
<path d="M18163 713 l-91 -198 266 -3 c386 -4 546 20 620 94 43 43 40 71 -12
100 -59 33 -139 44 -368 51 -115 3 -208 10 -208 15 0 5 9 27 20 49 12 22 25
51 30 64 l10 25 -89 0 -88 0 -90 -197z m602 -33 c18 -9 31 -25 33 -38 3 -18
-5 -26 -45 -44 -41 -18 -79 -23 -256 -31 -114 -6 -210 -7 -214 -4 -3 4 7 37
22 73 l28 66 201 -4 c152 -3 208 -7 231 -18z"/>
<path d="M19187 788 c-31 -68 -72 -158 -91 -200 l-35 -77 200 -1 201 0 174 77
174 76 62 -49 c35 -26 79 -61 99 -76 35 -28 39 -29 141 -26 l106 3 -139 102
-139 101 52 24 c29 13 125 55 212 94 l159 69 -102 3 -101 3 -153 -67 c-172
-75 -148 -76 -259 13 l-68 54 -106 -3 -106 -3 121 -88 c67 -49 121 -92 121
-97 0 -4 -33 -21 -72 -38 -40 -16 -142 -60 -226 -97 -84 -38 -155 -65 -159
-62 -5 6 60 156 139 321 15 33 28 61 28 63 0 2 -40 3 -88 3 l-89 0 -56 -122z"/>
</g>
</svg>
