<svg version="1" xmlns="http://www.w3.org/2000/svg" width="1936" height="1936" viewBox="0 0 1452.000000 1452.000000"><path d="M261.7 269.7c-.4.7-2.9 9.2-4.2 14.3-.2.8-.4 1.6-.5 1.7-.2.2-.4.7-.5 1.3-.1.5-.3 1.1-.5 1.2-.1.2-.3 1.2-.5 2.3-.1 1.1-1.7 6.9-3.5 13-1.8 6-3.3 11.4-3.4 12-.1.5-1.1 3.7-2.1 7s-1.9 6.4-2.1 7c-.1.5-1.2 4.4-2.4 8.5-1.1 4.1-2.3 8.2-2.5 9-.2.8-.8 3-1.4 4.8-.5 1.8-1 3.4-1.1 3.7 0 .3-.3 1-.5 1.7-.4 1.1-3.7 12.9-5 17.8-.2.8-1.1 4-2 7-.9 3-1.8 6.2-2 7-.2.8-.4 1.5-.5 1.5-.1 0-.3.7-.5 1.5s-1.2 4.6-2.3 8.5c-1.1 3.8-3.9 13.5-6.1 21.5-2.2 8-4.5 15.6-5.1 17-.5 1.4-1.2 3.6-1.4 5-.3 1.4-3 11.3-6.1 22-3.1 10.7-6.3 21.9-7.1 24.9-.8 2.9-1.7 5.7-2 6.2-.3.5-.7 1.7-.9 2.6-.1 1-1.5 6.1-3 11.3-1.5 5.2-3.5 12.4-4.5 16-1 3.6-2.5 8.6-3.3 11.2-.8 2.7-1.3 4.8-1.1 4.8.3 0-.2 1.3-1 2.9-.9 1.6-1.3 3.1-1 3.3.2.3-.1 1.8-.7 3.4-1.1 2.6-1.5 4-2.3 7.9-.1.5-.4 1.4-.7 2-.4.5-.9 2.3-1.3 4-.7 3-2.7 10-6.6 23.3-1.1 3.7-2.2 7.6-2.4 8.7-.2 1.1-.9 3.2-1.5 4.7-.6 1.6-.8 2.8-.5 2.8.2 0 0 .9-.6 2.1-.7 1.1-1.3 3-1.6 4.2-.2 1.2-1.8 6.9-3.4 12.7-1.7 5.8-3.3 11.4-3.5 12.4-.5 2.2-2.4 8.4-3.2 10.6-.3.8-.8 2.4-1 3.5-.2 1.1-1.2 4.7-2.2 8-1.1 3.3-2.3 7.7-2.6 9.7-.4 2.1-1.2 3.8-1.7 3.8s-.8.5-.6 1.2c.3.7-.6 4.8-2 9.3-1.3 4.4-3.4 11.8-4.7 16.5-1.3 4.7-3.3 11.6-4.5 15.5-1.1 3.8-2.3 8.1-2.6 9.4-.3 1.4-.7 2.8-1 3.3-.3.4-.7 1.6-.9 2.5-.1 1-1.7 6.7-3.5 12.8-1.8 6-3.4 11.7-3.5 12.5-.2.8-2.2 8-4.5 16-2.4 8-4.3 14.9-4.4 15.5-.1.5-.5 1.5-.8 2.1-.4.6-.9 2.1-1.2 3.5-.2 1.3-1.1 4.9-2 7.9-.9 3-3.1 10.9-5 17.5s-6.4 22.3-10 35c-3.7 12.6-6.8 23.9-7 25-.3 1.1-1.1 3.9-2 6.2-.8 2.4-1.3 4.3-1 4.3.2 0 0 .9-.6 2.1-.6 1.1-1.3 3-1.5 4.1-.3 1.2-2.1 7.8-4.1 14.7-2 6.9-3.8 13.3-3.9 14.1-.2.8-.4 1.5-.5 1.5-.1 0-.3.8-.6 1.8-.6 2.7-1 4.1-1.7 5.7-.6 1.7-6.9 24-7.1 25.5-.1.5-.5 1.6-.9 2.3-.5.6-.5 1.6-.2 2.2.3.5.2 1-.3 1s-.9.6-.9 1.2c0 .7-1.4 6-3.1 11.8-1.7 5.8-3.4 11.7-3.6 13-.2 1.4-.5 2.6-.7 2.7-.1.2-.3.7-.4 1.3-.1.5-.4 1.2-.5 1.5-.1.3-.4.9-.5 1.5-.1.5-.3 1.1-.5 1.2-.1.2-.3 1-.5 1.8-.1.8-1.5 5.7-3 10.9-1.5 5.1-2.9 10.1-3 11-.2.9-.4 1.6-.5 1.6-.1 0-.3.7-.5 1.5s-1.4 4.9-2.6 9c-1.2 4.1-2.3 8.2-2.4 9-.1.8-.7 2.6-1.2 4-.6 1.4-1.4 4.1-1.9 6-1 4.3-.9 4.2-1.7 6-1 2.6-4 13.4-4 14.7 0 .7-.4 1.3-.9 1.3s-.7.4-.4.8c.4.7-1.2 7.4-3.2 13.2-.3.8-.6 2-.8 2.7-.1.7-1.2 4.4-2.4 8.3-1.2 3.9-2.3 7.6-2.4 8.3-.1.7-1.1 3.9-2.1 7.2-1 3.3-2 6.7-2.1 7.5-.1.8-1.3 5.1-2.6 9.5s-2.5 8.2-2.5 8.5c-.1.3-.4 1.2-.7 2-.7 2.1-7.5 26.4-9.1 32.5-.8 2.7-1.7 5.8-2 6.7-.7 1.7 7.7 1.8 166.7 1.8h167.4l1.9-6.3c1-3.4 1.9-6.7 2-7.2.1-.6.3-1.2.4-1.5.2-.3.4-1.2.6-2 .2-.8 1.7-6.5 3.5-12.5 4.8-16.5 7-24.5 8.4-30.1.8-2.8 1.8-6 2.4-7.1.6-1.1.9-2.3.5-2.6-.3-.4-.1-1.2.5-1.9.5-.7 1.2-2.7 1.5-4.3.3-1.7 1.2-5.3 2-8 2.6-8.3 4.8-15.9 5.1-17.5.2-.8.6-2.2.9-3 .6-1.5 2.8-9.5 3.3-11.7.1-.7 1.2-4.3 2.3-8 1.2-3.8 2.3-7.7 2.6-8.8.2-1.1 1.8-6.7 3.5-12.5s3.3-11.6 3.6-13c.3-1.3.9-2.9 1.3-3.5.5-.5.7-1.8.6-2.8-.2-.9.2-1.7.8-1.7.5 0 .8-.2.5-.5-.3-.3.6-4.3 1.9-8.8 1.3-4.5 2.6-9.3 2.9-10.6.3-1.4.7-2.8 1-3.3.3-.4.7-1.6.9-2.5 1.6-7.1 9.1-31.9 9.7-32.1.5-.2.6-.7.3-1.1-.2-.5.9-5.5 2.6-11.2 1.7-5.7 3.5-12 4-13.9.6-1.9 1.3-4.2 1.6-5 .3-.8.7-2 .7-2.5.4-3 3-12.2 3.8-13.2.5-.7.7-1.7.4-2.2-.4-.5-.1-1.3.5-1.6.5-.4.8-1.3.5-2.1-.3-.8-.1-1.4.5-1.4s.8-.3.6-.8c-.3-.4 0-1.8.6-3.2.5-1.4 1.1-3.2 1.2-4 .1-.8.8-3.5 1.5-6 .8-2.5 1.4-4.7 1.5-5 .1-.3.8-2.5 1.5-5s1.4-4.7 1.5-5c.1-.3.5-2.2.9-4.3.5-2 1.2-3.7 1.7-3.7s.6-.6.3-1.4c-.3-.7.1-2.9.9-4.7.8-1.9 2-5.9 2.7-8.9.7-3 1.5-6 1.9-6.5.3-.6.6-1.5.7-2 .3-1.7 4.1-15.5 6.9-25 1.5-5 2.9-9.7 3-10.5.2-.8.4-1.5.5-1.5.1 0 .3-.7.5-1.5.3-1.6 7.9-28.1 12.7-44.5 1.6-5.5 3.2-11.1 3.4-12.4.3-1.3 1.1-3.9 1.9-5.7.7-1.8 1.1-3.5.8-3.7-.2-.3 0-1.4.6-2.5 1.3-2.4 6-2.6 6.8-.3.3.9 1.1 2.9 1.8 4.6 7.9 18 10.2 23 13.3 29 2 3.8 4.5 8.3 5.7 10 2.1 3.2 41.4 52.7 42.4 53.5.3.3 2.5 3 4.8 6s5 6.4 6 7.5c1 1.1 3.7 4.5 6 7.5s5 6.4 6 7.5c1 1.1 3 3.6 4.5 5.7 1.5 2 3.5 4.3 4.4 5.2.8.9 1.2 1.6.8 1.6-.4 0-.1.6.8 1.2.9.7 4.8 5.3 8.7 10.3 3.9 4.9 8.2 10.3 9.6 12 1.4 1.6 3.8 4.5 5.3 6.4 1.5 1.8 3.4 4.2 4.2 5.2.8 1 2.6 3.3 4 5 1.4 1.8 4.9 6.2 7.8 9.8 7.6 9.5 7.3 9 12.5 15.6 2.7 3.3 5.4 6.7 6.1 7.6.7.8 10.4 13 21.6 27 11.2 13.9 20.9 26.1 21.7 26.9.7.8 2.9 3.5 4.8 6s4.4 5.5 5.5 6.7c1.1 1.2 2 2.5 2 2.7 0 .3 1.2 1.8 2.8 3.4 1.5 1.6 3.6 4.2 4.7 5.7 1.1 1.6 2.5 3.3 3 3.9.6.6 2.4 2.9 4 5.1 1.7 2.2 3.2 4.2 3.6 4.5 1.3 1.2 13.9 17 13.9 17.5 0 .3 1.2 1.8 2.8 3.4 1.5 1.5 3.2 3.4 3.7 4.3 1 1.5 7.9 10.2 11.5 14.4 1 1.2 15.4 19.2 32.1 40 16.7 20.9 30.8 38.4 31.3 39.1.6.6 2.1 2.4 3.3 4 1.2 1.6 3.4 4.2 4.8 5.7s2.5 3 2.5 3.4c0 .4 2.2 3.1 4.8 6l4.7 5.2 210.9-.2 210.9-.3-4.4-4.9c-2.4-2.7-5.7-6.4-7.4-8.2-1.6-1.7-4.9-5.4-7.2-8-2.3-2.7-5.2-6.1-6.5-7.5-1.3-1.4-5-5.6-8.3-9.4-3.3-3.7-6.9-7.7-8-8.9-1.1-1.2-4.9-5.5-8.5-9.6-3.6-4.1-7.4-8.4-8.5-9.6-1.1-1.2-4.5-5-7.5-8.4-3-3.5-6.6-7.5-8-9-1.4-1.5-4.8-5.3-7.7-8.6-2.8-3.2-6.6-7.5-8.3-9.4-1.8-1.9-5.3-5.9-7.8-8.8-2.6-3-6.6-7.4-8.9-9.8-2.4-2.5-4.3-4.8-4.3-5.1 0-.3-1-1.5-2.2-2.7-1.9-1.8-9.8-10.5-16.7-18.4-2.6-3.1-13.4-15.3-15.6-17.6-1.1-1.2-4.5-5-7.5-8.5s-6.6-7.5-8-9c-1.4-1.5-4.7-5.2-7.3-8.2-2.6-3-6.3-7-8.2-9-1.9-2-3.5-3.8-3.5-4.1 0-.3-1.7-2.3-3.8-4.4-2-2.2-6.2-6.8-9.2-10.2-3-3.5-6.8-7.9-8.5-9.6-1.6-1.8-5.5-6.1-8.5-9.5-3-3.5-6.4-7.3-7.5-8.5-1.1-1.3-5.1-5.8-9-10.1-6.7-7.5-8.1-9.1-14.3-16-1.5-1.7-5.9-6.6-9.7-11-3.9-4.4-7.9-8.9-9-10.1-4.5-4.9-15.4-17.2-18.6-20.9-1.8-2.2-4.6-5.2-6.1-6.8-1.6-1.5-2.8-2.9-2.8-3.1 0-.2-1.5-2-3.2-3.9-7-7.4-12.8-14-12.8-14.5 0-.2-1-1.4-2.3-2.6-1.3-1.1-5.4-5.7-9.3-10.1-3.8-4.4-7.8-8.9-8.9-10.1-1.1-1.1-2.9-3.2-4-4.5-1.1-1.3-4.3-4.9-7-8-2.8-3-7.9-8.8-11.5-12.9-3.6-4-8.2-9.2-10.3-11.4-4.2-4.6-4.6-5-14.2-16.1-3.9-4.4-7.8-8.6-8.7-9.3-1-.7-1.8-1.7-1.8-2.2 0-.4-1.5-2.3-3.2-4.2-1.8-1.8-6.2-6.7-9.8-10.7-3.6-4-7.5-8.4-8.7-9.7-1.3-1.3-2.3-2.8-2.3-3.4 0-.6-.4-.8-1-.5-.5.3-1 .2-1-.3 0-.9-5-6.7-12.7-14.9-1.8-1.9-3.3-3.8-3.3-4.3s-.6-1-1.2-1.3c-.8-.2-.1-1 1.5-1.7 1.5-.7 2.7-1.7 2.7-2.2 0-.4.4-.8 1-.8 1.1 0 11.3-7.1 11.8-8.2.2-.5.8-.8 1.3-.8.8 0 12.7-7.6 13.9-9 .3-.3 6.6-4.5 14-9.5 7.4-4.9 13.7-9.2 14-9.5.3-.3 3.7-2.5 7.5-5 3.9-2.5 7.2-4.7 7.5-5 .3-.3 6.1-4.4 13-9s14.6-9.9 17.2-11.7c2.6-1.8 5-3.3 5.3-3.3.3 0 1.1-.5 1.8-1 4.7-3.9 6.2-5 7.8-5.5 1.1-.4 1.9-1.1 1.9-1.6s.7-.9 1.5-.9 1.5-.4 1.5-.8c0-.5 1.2-1.5 2.8-2.3 1.5-.8 2.9-1.6 3.2-1.9.3-.3 3.2-2.3 6.5-4.5s6.2-4.3 6.3-4.8c.2-.4 1-.7 1.8-.7s1.4-.5 1.4-1c0-.6.7-1 1.5-1 .9 0 1.8-.7 2.1-1.5.4-.8 1.2-1.5 1.9-1.5.8 0 2-.6 2.7-1.3.7-.7 3.6-2.7 6.3-4.4 2.8-1.8 5.7-3.8 6.5-4.5.8-.7 2.2-1.8 3.1-2.3 2.2-1.2 11.1-7.2 12.4-8.3.6-.4 6.6-4.5 13.5-9.1 6.9-4.7 12.7-8.7 13-9 .3-.3 1.7-1.2 3.2-2 1.5-.8 3.6-2.1 4.6-3 1-.9 2.5-2.1 3.4-2.6 6.7-4.2 31.4-21.2 31.6-21.8.2-.4 1-.7 1.8-.7s1.7-.7 2-1.5c.4-.8 1-1.5 1.5-1.5 1 0 13.3-8.2 16.2-10.8.9-.8 1.7-1.2 1.7-.8 0 .4.7.1 1.5-.7.8-.8 3.1-2.5 5.2-3.8 2.1-1.3 4-2.6 4.3-2.9.3-.3 4.5-3.3 9.5-6.5 4.9-3.3 9.4-6.3 10-6.8 5.3-4 21.6-14.7 22.5-14.7.5 0 1-.3 1-.8 0-.4 1.8-1.8 4-3.2 2.2-1.4 4-2.8 4-3.2 0-.5.5-.8 1-.8.9 0 16.6-10.3 19.7-13 .7-.5 1.6-1 2.2-1 .5 0 1.1-.3 1.3-.8.4-1 9.7-7.2 10.7-7.2.5 0 1.2-.7 1.5-1.6.3-.8 1-1.3 1.5-1 .5.4 1.1.3 1.3-.1.3-.9 5.7-4.6 23.3-16.4 6.1-4.1 11.1-7.7 11.3-8.1.2-.5 1-.8 1.8-.8s1.4-.3 1.4-.8c0-.4 1.6-1.6 3.5-2.6 1.9-1.1 3.5-2.3 3.5-2.8 0-.4.4-.8.9-.8s6.2-3.6 12.6-8c6.4-4.4 12.1-8 12.6-8s1.2-.7 1.5-1.5c.4-.8 1-1.5 1.5-1.5.7 0 9.7-5.9 13.4-8.7.6-.5 4.4-3.1 8.5-5.8 22.1-14.9 38.6-26.1 39.8-27.2.6-.6 2.1-1.5 3.2-1.8 1.1-.3 2-1 2-1.5s.9-1.2 2-1.5c1.1-.3 2.6-1.2 3.2-1.8.7-.7 7.6-5.5 15.3-10.7 7.7-5.1 14.2-9.6 14.5-9.9.3-.3 1.7-1.2 3.2-2 1.5-.8 3.7-2.2 4.7-3.3 1.1-1 2.3-1.8 2.6-1.8.4 0 2.1-1.1 3.9-2.5 1.8-1.4 3.8-2.5 4.4-2.5.6 0 1.2-.4 1.4-.9.2-.5 5.9-4.6 12.8-9.2s12.7-8.6 13-8.9c1-1 30-20.5 32-21.5 1.1-.5 2-1.3 2-1.7 0-.5.5-.8 1-.8.6 0 1.6-.5 2.3-1 .7-.6 2.1-1.7 3.2-2.5 1.7-1.2-24-1.4-197.4-1.5h-199.4l-8.6 6.4c-7.4 5.6-25.4 18.8-33 24.3-1.4 1-3.7 2.8-5.2 4-1.5 1.3-3.1 2.3-3.7 2.3-.6 0-1.2.4-1.4.8-.1.4-3.9 3.4-8.3 6.7-4.4 3.2-10 7.3-12.5 9.1-2.5 1.9-4.9 3.7-5.5 4.2-.5.4-3.2 2.3-6 4.2-2.7 1.9-6.1 4.5-7.5 5.7-1.3 1.3-2.8 2.3-3.2 2.3-.3 0-1.3.6-2 1.3-.7.7-5.6 4.3-10.8 8.1-5.2 3.8-9.6 7.3-9.8 7.7-.2.5-.8.9-1.3.9-.8 0-15.2 10.2-16.9 12-.3.3-2.2 1.6-4.2 3-2.1 1.4-3.8 2.8-3.8 3.2 0 .5-.7.8-1.5.8s-1.5.4-1.5 1c0 .5-.6 1-1.4 1-.8 0-1.6.4-1.8.8-.1.5-4.1 3.6-8.8 7-4.7 3.4-9 6.5-9.6 7-.6.5-3.5 2.7-6.5 4.8-5.6 4-6 4.3-9.6 7.2-1.1.9-3.1 2.4-4.3 3.2-1.2.8-9.5 6.9-18.5 13.5S828.2 434.2 827 435c-1.2.8-3 2.2-4 3-1 .8-2.9 2.3-4.2 3.2-12 8.6-22.4 16.4-22.6 17-.2.5-1 .8-1.8.8s-1.7.7-2 1.5c-.4.8-1.2 1.5-2 1.5s-1.4.4-1.4.8-1.5 1.6-3.2 2.7c-1.8 1-4.4 2.9-5.8 4.2-1.4 1.3-2.8 2.3-3.1 2.3-.3 0-1.5.8-2.7 1.7-1.1 1-4.6 3.6-7.7 5.8-3.1 2.2-6.2 4.5-6.8 5-.7.6-2.8 2.2-4.7 3.5-1.9 1.3-3.7 2.7-4 3-.3.3-2.2 1.6-4.2 3-2.1 1.4-3.8 2.8-3.8 3.2 0 .5-.5.8-1.1.8-.6 0-2.3 1-3.8 2.2-1.5 1.3-4 3.2-5.5 4.3-1.6 1.1-3.4 2.5-4.1 3.2-.7.7-1.5.9-1.9.6-.3-.4-.6-.2-.6.4 0 .6-2.1 2.5-4.7 4.2-4.2 2.6-6.2 4.2-12 9.1-.7.5-1.5 1-1.8 1-.3 0-2.9 1.8-5.8 4-8 6.1-12.6 9.5-20.7 15.4-4.1 3-7.9 5.9-8.5 6.3-.5.5-2.5 1.8-4.2 2.8-1.8 1.1-3.3 2.2-3.3 2.6 0 .3-2.1 2-4.7 3.7-2.7 1.7-7.4 5.1-10.5 7.4-3.1 2.4-11.2 8.3-18 13.3-6.8 4.9-14.4 10.5-16.9 12.5-2.6 1.9-5.9 4.4-7.5 5.5-1.5 1.1-5.3 3.9-8.3 6.1-3.1 2.3-12.8 9.4-21.6 15.8-8.8 6.5-16.7 12.2-17.5 12.9-.8.7-4 3-7 5.2s-5.6 4.3-5.8 4.7c-.2.5-1 .8-1.8.8s-1.4.3-1.4.7c-.1.5-2.4 2.4-5.1 4.3-2.8 1.9-6.3 4.6-7.8 6-1.5 1.4-5.6 5-9.1 8-15.3 13.3-15.5 13.5-32.3 29.3-7.9 7.5-12.6 11.2-14.2 11.3-2.9.1-2.9.1-1-6.2.8-2.7 1.4-4.9 1.4-4.9-.1 0 .8-3.2 2-7 1.1-3.9 2.2-7.9 2.3-9 .2-1.1.7-2.6 1.1-3.3.5-.6.6-1.6.2-2.1-.3-.5-.1-1.2.5-1.6.5-.3 1-1.5 1-2.6 0-1 .5-1.9 1.1-1.9.5 0 .8-.4.5-.9-.5-.7.5-4.6 5.4-20.6.1-.6.4-1.5.5-2 .2-.6 1.7-6 3.5-12 1.7-6.1 3.3-11.9 3.4-13.1.2-1.1.7-2.7 1.1-3.4.4-.7.9-2.3 1.1-3.4.3-1.8 6.6-24.3 8-28.6.3-.8.6-1.7.7-2 0-.3 1.2-4.1 2.5-8.5 1.4-4.4 2.5-8.9 2.6-10 .2-1.1.8-3 1.5-4.3.6-1.2.9-2.7.6-3.2-.3-.6-.2-1 .3-1s.9-.6.9-1.3c0-1.2 5.9-22.9 7-25.7.8-2.1 1.1-3 1.8-6.5.3-1.6 1.1-3.5 1.7-4.2.6-.7.8-1.3.5-1.3-.5 0 .6-4.3 5.8-22 1.5-5.2 2.2-7.7 3-11 .2-.8.4-1.6.5-1.8.2-.1.4-.7.5-1.2.1-.6.3-1.1.4-1.3.2-.1.4-1.3.7-2.7.2-1.4.8-3.4 1.3-4.5.8-1.7 1.8-5.4 3.5-12.6.3-.9 1.4-4.9 2.7-9 1.2-4.1 2.3-7.9 2.5-8.5.1-.6 1-3.8 2-7 .9-3.3 1.8-6.4 1.9-6.9.2-.6 1.7-6 3.5-12 1.7-6.1 3.3-11.5 3.4-12 .9-3.7 3-10.6 4.1-14.2.8-2.3 1.7-5.5 2-7 1-4.6 1-4.8 1.8-5.9.4-.7.9-2.9 1.3-5 .3-2.2.9-4.4 1.4-4.9.4-.6 1.1-2.6 1.5-4.5 1-4.5 15.2-54.7 16.5-58 .5-1.4 1.2-3.6 1.4-5 .3-1.4 1-4.1 1.6-6 .6-1.9 1.3-4.2 1.5-5 .2-.8 1.1-4 1.9-7 .9-3 1.6-5.8 1.6-6.3 0-.4-75.1-.7-166.9-.7-91.9 0-167.2.3-167.4.7z"/></svg>